<svg width="46" height="33" viewBox="0 0 46 33" fill="none" xmlns="http://www.w3.org/2000/svg">
<path d="M44.7458 4.41169C43.8987 3.01014 42.6119 1.92712 40.869 1.16264C39.1261 0.398159 36.8619 0 34.1091 0H0V0.557442H4.02337V32.4426H0V33H43.0028V32.4426H29.3201V18.459H34.1091C36.8619 18.459 39.1261 18.0927 40.869 17.376C42.6119 16.6593 43.915 15.624 44.7458 14.2703C45.5765 12.9165 46 11.2761 46 9.38079C46 7.48552 45.5765 5.82915 44.7458 4.4276V4.41169ZM39.8753 12.3591C39.5984 13.3624 39.1912 14.2862 38.6537 15.1303C38.1161 15.9744 37.4483 16.6593 36.6339 17.1689C35.8194 17.6786 34.9072 17.9334 33.8484 17.9334H24.238V23.2688C24.1565 25.0685 23.847 26.6453 23.2606 27.999C22.6579 29.4006 21.7295 30.4995 20.4752 31.2799C19.221 32.0603 17.5758 32.4585 15.5234 32.4585H9.07295V16.2293H11.4186C12.2656 16.2293 13.0637 16.4204 13.7967 16.8026C14.5297 17.1848 15.1161 17.7264 15.5722 18.4271C16.0283 19.1279 16.289 19.972 16.3541 20.9595H16.9242V11.1486H16.3541C16.289 12.1361 16.0283 12.9643 15.5722 13.6332C15.1161 14.3021 14.5297 14.8118 13.7967 15.1622C13.0637 15.5126 12.2819 15.6718 11.4186 15.6718H9.07295V0.557442H15.9958C17.755 0.557442 19.1884 0.939668 20.3123 1.68822C21.4363 2.43677 22.2833 3.45607 22.8534 4.74613C23.4235 6.03619 23.733 7.45366 23.7982 9.0304H24.3357V0.557442H33.8321C34.8746 0.557442 35.8031 0.828195 36.6176 1.35377C37.4157 1.89528 38.0836 2.59605 38.6374 3.47202C39.1749 4.34799 39.5822 5.30356 39.8591 6.3388C40.136 7.37403 40.2826 8.37742 40.2826 9.36487C40.2826 10.3523 40.136 11.3398 39.8591 12.3431L39.8753 12.3591Z" fill="#564D3F"/>
</svg>
